<?xml version="1.0" standalone="no"?>
<!DOCTYPE svg PUBLIC "-//W3C//DTD SVG 20010904//EN"
 "http://www.w3.org/TR/2001/REC-SVG-20010904/DTD/svg10.dtd">
<svg version="1.0" xmlns="http://www.w3.org/2000/svg"
 width="505.000000pt" height="147.000000pt" viewBox="0 0 505.000000 147.000000"
 preserveAspectRatio="xMidYMid meet">

<g transform="translate(0.000000,147.000000) scale(0.100000,-0.100000)"
fill="#000000" stroke="none">
<path d="M4115 1460 c-7 -12 2 -12 30 0 19 8 19 9 -2 9 -12 1 -25 -3 -28 -9z"/>
<path d="M4260 1428 c0 -102 -59 -253 -257 -663 -85 -176 -167 -333 -181 -349
-32 -34 -116 -76 -153 -76 -14 0 -33 8 -42 18 -19 21 -22 80 -6 115 14 30 78
72 152 99 31 11 56 22 54 24 -9 9 -127 -20 -174 -42 -89 -43 -152 -136 -153
-226 0 -61 28 -84 92 -74 45 7 190 72 237 105 38 27 41 27 41 -8 0 -16 7 -36
15 -45 14 -13 73 -33 150 -50 l30 -7 -39 32 c-46 39 -66 82 -66 145 0 37 15
78 74 203 175 369 269 665 251 788 -8 58 -25 65 -25 11z"/>
<path d="M483 1345 c-89 -45 -277 -263 -358 -416 -47 -90 -66 -167 -66 -275 0
-196 84 -332 256 -414 89 -42 163 -55 315 -54 145 1 232 16 344 58 58 22 161
76 146 76 -3 0 -46 -9 -95 -19 -195 -42 -491 -55 -613 -26 -130 31 -239 103
-285 190 -62 115 7 354 163 565 57 77 162 180 207 203 39 21 92 22 119 3 26
-19 104 -119 104 -134 0 -7 -22 -23 -50 -37 -49 -25 -50 -26 -50 -70 0 -53 18
-67 59 -44 30 17 89 126 98 181 5 34 1 41 -48 94 -62 65 -161 144 -181 144 -8
0 -37 -11 -65 -25z"/>
<path d="M3094 639 c-86 -56 -209 -150 -236 -181 -40 -45 -2 -34 70 20 98 73
128 92 147 92 32 0 14 -56 -56 -172 -40 -65 -69 -121 -66 -124 15 -15 61 12
192 111 77 58 143 105 147 105 15 0 8 -36 -22 -125 -16 -49 -30 -92 -30 -97 0
-29 157 27 190 67 14 17 13 18 -5 11 -46 -19 -97 -28 -105 -20 -5 5 2 45 16
93 27 93 31 151 11 151 -7 0 -56 -28 -110 -61 -54 -34 -100 -59 -103 -56 -3 3
13 48 35 101 66 155 54 169 -75 85z"/>
<path d="M1894 638 c-70 -52 -134 -125 -134 -152 0 -13 34 -36 55 -36 13 0 30
-7 39 -15 21 -22 7 -55 -61 -145 -77 -103 -113 -160 -113 -183 0 -10 4 -16 9
-13 12 8 230 294 253 333 28 47 12 73 -46 73 -23 0 -45 3 -49 6 -9 9 20 61 61
112 37 46 32 55 -14 20z"/>
<path d="M2174 638 c-70 -52 -134 -125 -134 -152 0 -13 34 -36 55 -36 13 0 30
-7 39 -15 21 -22 7 -55 -61 -145 -77 -103 -113 -160 -113 -183 0 -10 4 -16 9
-13 12 8 230 294 253 333 28 47 12 73 -46 73 -23 0 -45 3 -49 6 -9 9 20 61 61
112 37 46 32 55 -14 20z"/>
<path d="M1406 600 c-165 -53 -300 -236 -241 -326 16 -25 21 -26 79 -22 63 5
199 60 265 107 16 12 31 21 33 21 1 0 3 -14 4 -31 2 -42 21 -58 100 -80 95
-26 116 -25 74 4 -55 36 -75 81 -75 166 l0 75 -50 13 c-65 17 -83 17 -67 1 35
-35 -4 -107 -83 -154 -63 -37 -102 -46 -147 -33 -57 15 -67 45 -37 105 30 60
74 95 175 139 87 38 69 47 -30 15z"/>
<path d="M2546 600 c-165 -53 -300 -236 -241 -326 16 -25 21 -26 79 -22 63 5
199 60 265 107 16 12 31 21 33 21 1 0 3 -14 4 -31 2 -42 21 -58 100 -80 95
-26 116 -25 74 4 -55 36 -75 81 -75 166 l0 75 -50 13 c-65 17 -83 17 -67 1 35
-35 -4 -107 -83 -154 -63 -37 -102 -46 -147 -33 -57 15 -67 45 -37 105 30 60
74 95 175 139 87 38 69 47 -30 15z"/>
<path d="M4636 600 c-165 -53 -300 -236 -241 -326 16 -25 21 -26 79 -22 63 5
199 60 265 107 16 12 31 21 33 21 1 0 3 -14 4 -31 2 -42 21 -58 100 -80 95
-26 116 -25 74 4 -55 36 -75 81 -75 166 l0 75 -50 13 c-65 17 -83 17 -67 1 35
-35 -4 -107 -83 -154 -63 -37 -102 -46 -147 -33 -57 15 -67 45 -37 105 30 60
74 95 175 139 87 38 69 47 -30 15z"/>
<path d="M4346 589 c-21 -5 -61 -25 -88 -44 l-48 -35 0 28 c0 15 -5 33 -12 40
-14 14 -98 16 -98 2 0 -5 11 -10 24 -10 48 0 51 -20 22 -143 -29 -125 -33
-187 -13 -187 23 0 46 33 67 95 43 124 122 215 205 236 25 6 48 15 51 20 7 11
-59 10 -110 -2z"/>
</g>
</svg>
